<?xml version="1.0" standalone="no"?>
<!DOCTYPE svg PUBLIC "-//W3C//DTD SVG 20010904//EN"
 "http://www.w3.org/TR/2001/REC-SVG-20010904/DTD/svg10.dtd">
<svg version="1.0" xmlns="http://www.w3.org/2000/svg"
 width="500.000000pt" height="500.000000pt" viewBox="0 0 500.000000 500.000000"
 preserveAspectRatio="xMidYMid meet">

<g transform="translate(0.000000,500.000000) scale(0.100000,-0.100000)"
fill="#000000" stroke="none">
<path d="M2215 4200 c-225 -40 -420 -111 -599 -220 -397 -240 -690 -638 -792
-1072 l-18 -78 -46 0 c-25 0 -55 -6 -65 -14 -18 -13 -18 -14 3 -25 15 -8 496
-11 1804 -11 1494 0 1787 2 1803 14 18 13 18 14 -3 25 -11 6 -40 11 -65 11
l-43 0 -18 78 c-71 303 -238 594 -472 824 -261 256 -575 413 -946 472 -135 22
-410 20 -543 -4z m625 -93 c63 -14 153 -39 200 -55 479 -164 869 -563 1023
-1047 51 -159 53 -175 29 -175 -16 0 -24 12 -37 58 -112 401 -365 761 -690
978 -245 163 -488 239 -806 251 -328 13 -589 -47 -850 -193 -218 -122 -415
-310 -552 -527 -90 -141 -185 -365 -217 -509 -11 -46 -17 -58 -32 -58 -24 0
-21 17 29 175 179 562 655 986 1238 1104 145 30 142 29 355 27 168 -3 211 -7
310 -29z m-72 -92 c192 -32 406 -116 460 -181 43 -51 47 -74 28 -131 -33 -97
-173 -299 -219 -316 -11 -4 -137 -15 -278 -24 -222 -14 -260 -14 -275 -2 -30
24 -256 272 -286 313 -35 48 -38 110 -7 172 23 48 135 159 183 181 39 17 255
11 394 -12z m700 -340 c198 -99 447 -476 516 -782 l14 -63 -372 0 -373 0 -10
33 c-91 283 -125 407 -124 450 1 59 32 125 105 222 28 39 62 87 75 108 25 41
57 67 82 67 9 0 48 -16 87 -35z m-1337 -8 c38 -27 220 -245 249 -299 53 -99
52 -127 -21 -347 l-64 -191 -445 2 -445 3 -3 28 c-2 16 15 86 37 157 109 340
201 478 391 582 150 82 246 103 301 65z m-627 -102 c28 -26 46 -64 46 -98 0
-12 -25 -71 -54 -132 -49 -98 -138 -348 -166 -462 l-11 -43 -159 0 c-135 0
-160 2 -160 15 0 8 14 59 31 112 62 197 193 428 319 566 52 56 67 67 94 67 21
0 43 -9 60 -25z"/>
<path d="M1665 2630 c-39 -4 -50 -9 -49 -22 0 -10 1 -114 2 -232 2 -214 2
-215 25 -218 15 -2 -8 -14 -68 -36 -116 -42 -154 -62 -172 -89 l-15 -23 -343
0 c-274 0 -345 -3 -354 -13 -18 -22 -2 -27 84 -27 l82 0 18 -47 c56 -154 144
-318 241 -452 104 -143 300 -324 474 -437 27 -18 46 -39 48 -51 7 -49 91 -89
131 -64 10 7 23 3 39 -10 14 -10 35 -19 48 -19 12 0 62 -13 111 -29 48 -17
130 -38 182 -49 87 -17 94 -21 106 -49 28 -67 96 -83 139 -32 14 17 26 35 26
40 0 5 53 9 120 9 180 0 375 35 550 100 l81 30 9 -25 c11 -30 45 -48 75 -41
30 8 36 26 24 71 -6 20 -9 38 -7 39 2 1 41 24 87 51 249 144 481 373 623 615
45 77 112 217 143 303 l18 47 82 0 c86 0 102 5 84 27 -9 11 -168 13 -895 13
l-884 0 0 43 c0 82 -61 100 -122 35 -15 -17 -31 -41 -34 -54 l-6 -24 -228 0
-229 0 9 29 c10 35 -13 87 -42 96 -10 4 -61 7 -113 8 -92 2 -128 13 -62 19
l32 3 5 80 5 80 24 -70 c13 -38 28 -76 34 -82 5 -8 32 -13 63 -13 67 0 67 1
13 140 -22 58 -43 112 -46 121 -2 9 16 58 42 109 25 50 44 94 41 97 -3 3 -30
6 -61 8 l-56 2 -29 -63 c-16 -35 -32 -64 -36 -64 -3 0 -4 25 -2 55 3 34 0 58
-6 63 -6 4 -33 5 -61 2z m35 -539 c0 -11 -4 -22 -9 -25 -12 -8 -21 -81 -35
-291 -12 -175 -7 -267 15 -289 19 -20 9 -37 -18 -34 -22 2 -31 11 -40 38 -16
46 -17 328 -2 460 7 55 10 103 7 106 -3 3 -18 2 -33 -2 -20 -5 -25 -11 -22
-26 4 -15 -4 -23 -41 -39 -26 -10 -59 -26 -74 -35 l-28 -15 0 35 c0 26 6 39
28 54 15 10 33 17 41 14 9 -3 11 0 6 8 -5 9 -4 11 4 6 17 -11 121 15 121 30 0
11 16 16 68 23 6 0 12 -8 12 -18z m178 -3 c7 -7 12 -20 12 -30 0 -15 -8 -18
-47 -17 -40 0 -44 2 -25 10 36 14 16 29 -41 31 l-52 1 65 7 c36 4 67 7 71 8 3
1 10 -3 17 -10z m622 -29 c0 -42 -53 -196 -101 -291 -40 -80 -46 -109 -29
-152 9 -24 40 -37 40 -18 0 5 9 17 19 29 10 11 32 47 47 79 27 55 32 59 66 62
24 2 43 11 52 24 27 38 36 11 36 -103 0 -90 -3 -109 -15 -109 -17 0 -24 24
-27 100 l-3 55 -34 -72 c-37 -79 -56 -90 -74 -43 l-11 29 -21 -37 c-28 -50
-63 -54 -98 -13 l-25 30 -16 -24 c-20 -30 -45 -32 -78 -5 -18 14 -28 16 -36 8
-8 -8 -19 -7 -41 2 -31 12 -51 51 -51 97 0 13 -4 22 -9 19 -15 -10 -51 -95
-51 -121 0 -14 -6 -25 -13 -25 -23 0 -37 23 -37 60 l-1 35 -20 -37 c-35 -67
-84 -82 -130 -42 -14 13 -18 12 -29 -1 -44 -53 -104 59 -82 155 12 55 37 46
38 -15 2 -106 4 -117 17 -113 6 3 23 31 37 64 30 71 56 110 77 118 23 9 63
-21 63 -47 0 -25 -46 -103 -73 -126 -20 -16 -22 -31 -4 -31 30 0 109 106 122
163 4 19 12 27 26 27 18 0 19 -4 13 -37 -6 -38 -6 -38 11 -15 12 16 25 22 43
20 28 -3 36 -19 47 -90 3 -22 12 -38 19 -38 19 0 43 31 50 65 4 17 15 45 26
63 16 26 26 32 54 32 32 0 34 3 45 47 19 73 70 198 92 227 12 15 31 26 45 26
20 0 24 -5 24 -31z m-730 -34 c11 -13 7 -15 -24 -15 -25 0 -36 4 -36 15 0 9 9
15 24 15 13 0 29 -7 36 -15z m-760 -132 c45 -111 123 -242 206 -354 86 -113
271 -295 372 -364 65 -44 90 -75 61 -75 -20 0 -151 94 -238 171 -177 156 -315
343 -409 554 -51 113 -59 145 -39 145 8 0 27 -31 47 -77z m168 -56 c42 -90 62
-144 62 -169 0 -21 -3 -38 -7 -38 -17 0 -173 298 -173 329 0 6 12 11 28 11 25
0 32 -10 90 -133z m1162 126 c0 -5 -9 -35 -19 -68 -16 -50 -23 -61 -49 -70
-40 -13 -49 -22 -78 -81 -19 -40 -23 -44 -24 -24 0 38 -26 68 -65 76 -19 3
-39 12 -46 20 -14 17 -51 18 -66 3 -8 -8 -17 -7 -34 5 -32 22 -71 20 -97 -5
-28 -25 -42 -17 -42 26 0 71 -71 89 -102 25 -10 -19 -19 -28 -19 -20 -3 26 3
105 8 113 2 4 146 7 319 7 173 0 314 -3 314 -7z m347 -10 c-3 -10 -8 -36 -12
-58 -11 -70 -14 -76 -35 -65 -27 15 -60 12 -66 -5 -4 -8 -17 -15 -31 -15 -41
0 -60 -17 -100 -90 -35 -65 -53 -85 -53 -60 0 6 13 37 30 70 25 50 68 152 93
223 5 14 20 17 92 17 77 0 86 -2 82 -17z m1038 -5 c-16 -50 -38 -88 -85 -139
-47 -51 -49 -53 -50 -27 0 50 -61 78 -90 43 -7 -8 -21 -15 -32 -15 -11 0 -28
-5 -38 -10 -15 -8 -24 -5 -44 15 -26 26 -64 32 -96 15 -13 -7 -21 -6 -30 5
-27 32 -100 2 -100 -41 0 -11 -5 -14 -17 -9 -37 14 -70 16 -110 7 -31 -7 -45
-7 -53 3 -5 6 -37 20 -71 30 l-62 19 -18 -23 c-11 -13 -19 -36 -19 -51 0 -15
-3 -48 -6 -73 l-7 -46 -45 31 -44 31 6 56 c3 31 11 89 17 129 l12 72 494 0
494 0 -6 -22z m315 -25 c-22 -69 -117 -251 -176 -338 -135 -201 -316 -373
-522 -495 -107 -63 -99 -42 10 25 275 170 518 445 628 713 18 42 39 92 46 111
19 45 29 33 14 -16z m-2260 -79 c0 -27 -12 -31 -30 -9 -10 12 -10 18 0 30 16
19 30 10 30 -21z m2065 -27 c26 -20 16 -47 -66 -172 -83 -125 -260 -310 -376
-393 -40 -29 -73 -50 -73 -47 0 2 11 38 25 79 25 73 32 149 17 173 -10 15 -61
35 -73 27 -5 -3 -9 -3 -9 -1 0 2 24 20 53 40 34 23 65 37 85 37 20 0 36 7 45
20 14 21 14 21 20 1 7 -28 53 -48 75 -34 13 7 18 30 22 84 l5 73 60 43 c69 49
133 83 156 83 8 0 23 -6 34 -13z m-2282 -154 c6 -167 19 -220 59 -242 41 -23
82 -6 86 37 2 18 -1 39 -6 45 -6 7 -13 46 -16 87 l-6 75 19 -42 c23 -50 57
-74 102 -74 145 -1 151 -2 234 -55 70 -44 85 -59 113 -112 61 -114 79 -221 47
-282 -16 -31 -42 -42 -31 -14 6 15 -43 74 -62 74 -5 0 -17 9 -27 20 -30 33
-77 26 -115 -16 -17 -20 -36 -47 -42 -60 -7 -14 -16 -23 -22 -21 -14 6 -14 5
32 112 52 119 77 221 63 257 -13 35 -49 44 -91 23 -36 -19 -85 -111 -116 -218
-16 -58 -22 -66 -47 -71 -16 -3 -38 -1 -50 6 -58 30 -211 155 -288 235 -94 98
-99 109 -99 228 l0 73 103 35 c88 31 114 39 148 46 3 0 9 -65 12 -146z m1327
114 c0 -16 3 -18 12 -9 18 18 43 15 63 -8 13 -14 25 -18 43 -13 18 4 23 2 20
-8 -7 -23 -52 -22 -73 1 -10 11 -22 20 -26 20 -10 0 -45 -95 -54 -147 -7 -45
-15 -52 -34 -29 -13 15 -5 162 10 203 10 28 39 20 39 -10z m345 -29 c-3 -35
-8 -76 -11 -93 -2 -16 6 -2 19 32 43 111 78 142 118 102 23 -23 24 -60 3 -121
-17 -52 -49 -86 -90 -97 -27 -7 -29 -12 -34 -67 -3 -32 -3 -75 0 -94 l5 -35
14 33 c23 55 91 58 91 3 0 -44 -38 -157 -82 -246 l-41 -80 7 -87 c4 -49 9 -95
12 -103 4 -10 0 -15 -10 -15 -9 0 -21 12 -27 27 -18 48 -21 212 -6 303 12 68
12 89 2 105 -17 26 -24 109 -26 275 -2 156 11 220 42 220 20 0 21 -4 14 -62z
m318 -62 c2 -88 -1 -106 -12 -104 -21 4 -32 56 -25 113 8 61 3 58 -41 -33 -19
-40 -38 -72 -43 -72 -34 0 -42 74 -16 140 15 37 19 40 55 40 29 0 41 5 50 21
20 38 30 5 32 -105z m-413 54 c25 -25 25 -34 1 -87 -29 -64 -85 -84 -115 -41
-21 30 -20 61 4 108 18 35 25 40 55 40 22 0 43 -8 55 -20z m-176 -46 c10 -4
16 -18 16 -40 0 -72 69 -121 128 -90 l29 15 6 -42 c3 -23 5 -43 3 -44 -6 -6
-89 22 -158 54 -85 39 -88 44 -66 114 12 40 15 43 42 33z m-874 -84 c0 -14 40
-33 90 -42 25 -4 60 -10 78 -14 20 -4 38 -2 47 6 8 6 20 8 27 4 21 -13 -62
-42 -123 -43 -70 -1 -153 25 -145 46 3 8 6 23 6 34 0 10 5 19 10 19 6 0 10 -4
10 -10z m763 -122 c2 -7 0 -29 -4 -48 -14 -60 -12 -70 19 -71 l27 -2 -28 -4
c-15 -2 -31 -12 -36 -21 -17 -33 -33 -190 -35 -337 -2 -128 -4 -150 -18 -153
-20 -4 -28 26 -28 103 l0 60 -25 -38 c-28 -41 -51 -46 -85 -19 -17 13 -22 30
-24 70 -1 28 -5 55 -9 58 -4 4 -25 -32 -47 -79 -34 -74 -43 -87 -64 -87 -38 0
-50 23 -42 83 3 28 9 63 12 75 l7 24 -41 -21 c-46 -23 -112 -78 -112 -92 0 -5
9 -9 20 -9 11 0 29 -9 40 -20 38 -38 18 -207 -28 -225 -32 -12 -66 28 -75 86
-14 90 -17 99 -32 99 -13 0 -12 5 4 28 13 18 23 58 30 122 7 52 19 136 29 185
15 81 19 90 41 93 20 3 23 0 18 -20 -28 -121 -38 -172 -43 -225 l-7 -63 79 41
c43 22 83 48 89 56 7 9 19 14 27 11 13 -5 13 -15 -3 -75 -10 -37 -18 -81 -18
-96 -1 -26 0 -27 15 -13 8 9 37 63 64 120 43 91 52 104 71 99 15 -4 19 -11 15
-27 -14 -61 -17 -117 -7 -154 11 -39 13 -41 37 -32 49 19 61 46 68 159 3 58 9
130 12 159 l7 52 -83 -35 c-45 -19 -84 -35 -86 -35 -2 0 -4 9 -4 20 0 24 29
41 61 34 20 -5 21 -4 9 6 -12 9 -10 10 9 5 13 -4 41 -2 62 5 37 13 39 15 55
86 13 59 20 74 34 74 10 0 20 -6 23 -12z m195 -30 c7 -7 12 -18 12 -25 0 -7 9
-22 20 -33 23 -23 18 -43 -8 -38 -13 3 -29 -22 -64 -95 -26 -54 -61 -119 -78
-143 -16 -25 -30 -50 -30 -57 0 -6 7 0 16 13 24 36 44 50 71 50 19 0 23 -5 23
-29 0 -30 -57 -114 -84 -124 -9 -4 -16 -16 -16 -27 0 -11 -4 -20 -9 -20 -17 0
-29 26 -39 84 -11 69 6 208 37 299 14 40 16 57 8 61 -7 2 -4 5 6 5 9 1 17 5
17 11 0 5 14 25 31 45 32 36 65 45 87 23z m-1088 -42 c0 -46 -40 -166 -95
-282 -25 -53 -45 -105 -45 -115 0 -25 21 -69 33 -69 18 0 58 52 87 114 16 34
41 73 54 85 24 23 26 23 51 7 17 -11 25 -26 25 -45 0 -27 -40 -92 -73 -120
-21 -16 -22 -31 -3 -31 13 0 90 79 113 116 9 14 12 15 12 4 0 -26 -53 -112
-81 -133 -24 -18 -30 -19 -58 -7 -20 8 -36 24 -42 43 l-11 29 -21 -39 c-29
-51 -65 -56 -97 -14 l-22 30 -19 -25 c-24 -30 -47 -31 -77 -3 -19 18 -22 29
-18 65 2 23 13 60 24 81 17 32 25 38 56 41 34 3 37 6 47 45 15 60 39 124 68
182 33 67 40 75 68 75 21 0 24 -5 24 -34z m1205 -78 c8 -34 8 -118 1 -153 -3
-11 -5 -26 -5 -33 -1 -9 -6 -10 -20 -2 -25 13 -78 13 -86 0 -12 -20 -25 -9
-25 21 0 19 -4 28 -11 24 -6 -4 -1 13 12 36 23 47 110 149 120 143 4 -2 10
-18 14 -36z m-13 -235 c22 -19 23 -54 4 -91 -34 -65 -83 -79 -118 -32 -20 27
-14 69 17 116 19 29 69 33 97 7z m-732 -98 c0 -23 -2 -24 -21 -15 -16 9 -18
14 -8 26 17 21 29 17 29 -11z m-180 -5 c0 -5 -15 -10 -32 -9 -28 0 -30 2 -13
9 28 12 45 12 45 0z m751 -66 c-18 -8 -36 -12 -39 -9 -10 10 21 25 48 24 23
-1 22 -2 -9 -15z m-795 -30 c19 -9 33 -19 30 -21 -9 -9 -165 30 -159 40 8 13
86 1 129 -19z m674 -4 c-20 -13 -40 -13 -40 0 0 6 12 10 28 10 21 0 24 -2 12
-10z m-150 -19 c0 -14 -56 -21 -171 -21 -143 0 -144 18 -1 23 59 1 122 4 140
5 17 1 32 -2 32 -7z"/>
<path d="M1652 2030 c0 -14 2 -19 5 -12 2 6 2 18 0 25 -3 6 -5 1 -5 -13z"/>
<path d="M1632 2010 c0 -14 2 -19 5 -12 2 6 2 18 0 25 -3 6 -5 1 -5 -13z"/>
<path d="M1642 1945 c0 -16 2 -22 5 -12 2 9 2 23 0 30 -3 6 -5 -1 -5 -18z"/>
<path d="M1627 1865 c3 -49 7 -92 9 -94 8 -8 3 105 -6 144 -6 28 -7 13 -3 -50z"/>
<path d="M1614 1705 c0 -88 2 -123 3 -77 2 46 2 118 0 160 -1 42 -3 5 -3 -83z"/>
<path d="M1631 1664 c0 -11 3 -14 6 -6 3 7 2 16 -1 19 -3 4 -6 -2 -5 -13z"/>
<path d="M1629 1532 c-3 -20 -2 -29 4 -23 5 5 7 19 5 32 -3 20 -5 19 -9 -9z"/>
<path d="M2465 2047 c-36 -56 -119 -317 -95 -302 11 7 98 215 111 268 14 56 7
69 -16 34z"/>
<path d="M1903 1753 c-11 -15 -25 -43 -31 -62 -11 -30 -10 -32 5 -20 18 15 57
98 50 105 -3 3 -14 -7 -24 -23z"/>
<path d="M2270 1728 c-20 -45 -27 -128 -11 -128 6 0 21 15 35 33 20 26 26 46
26 85 0 66 -23 70 -50 10z"/>
<path d="M2532 1722 c-15 -38 -25 -78 -19 -72 15 16 45 90 38 94 -5 3 -13 -7
-19 -22z"/>
<path d="M3301 1743 c-20 -41 -53 -144 -47 -150 9 -9 56 54 70 94 30 87 14
127 -23 56z"/>
<path d="M3298 1410 c-24 -37 -45 -107 -52 -175 l-6 -60 23 47 c13 26 28 44
32 40 5 -4 5 -2 1 5 -4 7 1 34 9 61 9 28 15 63 13 78 l-3 29 -17 -25z"/>
<path d="M3456 1718 c-23 -53 -19 -71 5 -25 11 21 18 44 16 50 -3 7 -12 -5
-21 -25z"/>
<path d="M3081 1725 c-24 -32 -44 -96 -33 -107 13 -13 62 31 62 53 0 11 4 18
8 15 12 -7 8 42 -4 54 -8 8 -17 4 -33 -15z"/>
<path d="M2314 945 c-9 -22 2 -165 13 -176 12 -12 56 48 49 66 -3 8 0 15 6 17
8 3 8 19 2 53 -8 44 -12 50 -37 53 -18 2 -29 -2 -33 -13z"/>
<path d="M2762 910 c0 -14 2 -19 5 -12 2 6 2 18 0 25 -3 6 -5 1 -5 -13z"/>
<path d="M2998 1433 c-31 -36 -30 -43 1 -43 21 0 31 5 31 15 0 8 5 15 11 15 8
0 8 5 -1 15 -16 19 -24 19 -42 -2z"/>
<path d="M2962 1368 c-12 -15 -46 -126 -56 -181 -9 -50 4 -42 41 23 15 27 31
46 37 43 5 -3 6 -1 3 5 -9 13 2 44 13 37 11 -7 30 43 23 62 -4 11 -3 14 5 9 7
-4 12 -2 12 3 0 15 -65 14 -78 -1z"/>
<path d="M2946 1067 c-29 -38 -34 -56 -10 -36 16 13 48 69 40 69 -3 0 -16 -15
-30 -33z"/>
<path d="M1907 1359 c-34 -71 -77 -205 -77 -239 0 -21 33 36 55 95 10 28 22
55 26 60 13 18 40 125 36 143 -2 11 -17 -10 -40 -59z"/>
<path d="M2005 1095 c-31 -52 -29 -83 2 -39 22 30 40 84 30 84 -4 0 -18 -20
-32 -45z"/>
<path d="M1740 1098 c-23 -38 -37 -115 -23 -129 7 -7 19 1 37 21 21 26 26 42
26 86 0 62 -12 68 -40 22z"/>
<path d="M3102 1098 c-21 -27 -42 -78 -42 -103 0 -25 1 -25 29 -10 19 9 32 25
36 45 4 17 11 28 16 24 13 -8 11 30 -3 44 -15 15 -23 15 -36 0z"/>
<path d="M2020 2629 c-39 -16 -59 -39 -71 -82 -18 -69 -4 -111 63 -183 63 -67
70 -94 23 -94 -14 0 -34 5 -44 12 -35 21 -51 4 -51 -56 0 -52 2 -56 28 -63 45
-13 135 -7 169 11 40 20 63 62 63 116 0 53 -17 84 -79 145 -49 47 -65 84 -38
86 6 1 30 2 52 3 40 1 40 1 43 44 2 24 -2 50 -9 58 -13 16 -110 18 -149 3z"/>
<path d="M2295 2626 c-8 -6 -19 -40 -25 -76 -46 -275 -60 -372 -55 -381 4 -5
29 -9 56 -9 51 0 52 1 63 53 5 23 11 27 40 27 31 0 35 -3 43 -37 8 -37 10 -38
57 -41 79 -5 77 -32 20 303 -14 83 -28 153 -32 156 -14 13 -151 17 -167 5z
m99 -202 c7 -55 -7 -81 -33 -65 -13 9 -13 25 6 115 7 38 18 18 27 -50z"/>
<path d="M2685 2632 c-44 -15 -84 -47 -107 -86 -20 -36 -23 -54 -23 -146 0
-93 3 -110 25 -150 35 -63 80 -90 147 -90 l54 0 -3 63 c-2 46 -7 62 -18 63 -8
1 -21 2 -27 3 -7 0 -22 10 -33 21 -16 16 -20 33 -20 83 0 75 17 104 63 109
l32 3 0 65 0 65 -35 2 c-19 1 -44 -2 -55 -5z"/>
<path d="M2888 2632 c-11 -2 -20 -20 -27 -55 -21 -103 -61 -360 -61 -389 l0
-29 58 3 c57 3 57 3 62 38 5 32 8 35 40 35 32 0 35 -3 40 -35 5 -35 5 -35 63
-38 56 -3 61 0 59 33 -5 60 -66 423 -73 429 -6 5 -141 13 -161 8z m86 -173
c10 -53 7 -97 -8 -102 -8 -3 -17 -3 -20 0 -14 14 -1 133 14 133 4 0 10 -14 14
-31z"/>
<path d="M3210 2622 c-44 -22 -60 -53 -60 -122 0 -63 13 -87 78 -144 53 -48
58 -86 12 -86 -17 0 -39 5 -49 12 -33 21 -51 3 -51 -50 0 -65 14 -76 99 -76
113 0 161 40 161 133 0 62 -22 105 -75 145 -73 56 -68 97 10 88 l45 -5 0 56
c0 41 -4 56 -16 61 -32 12 -120 6 -154 -12z"/>
</g>
</svg>
