<?xml version="1.0" standalone="no"?>
<!DOCTYPE svg PUBLIC "-//W3C//DTD SVG 20010904//EN"
 "http://www.w3.org/TR/2001/REC-SVG-20010904/DTD/svg10.dtd">
<svg version="1.0" xmlns="http://www.w3.org/2000/svg"
 width="500.000000pt" height="500.000000pt" viewBox="0 0 500.000000 500.000000"
 preserveAspectRatio="xMidYMid meet">

<g transform="translate(0.000000,500.000000) scale(0.100000,-0.100000)"
fill="#000000" stroke="none">
<path d="M0 2500 l0 -2500 2500 0 2500 0 0 2500 0 2500 -2500 0 -2500 0 0
-2500z m2758 1704 c371 -59 685 -216 946 -472 234 -230 401 -521 472 -824 l18
-78 43 0 c25 0 54 -5 65 -11 21 -11 21 -12 3 -25 -16 -12 -309 -14 -1803 -14
-1308 0 -1789 3 -1804 11 -21 11 -21 12 -3 25 10 8 40 14 65 14 l46 0 18 78
c102 434 395 832 792 1072 179 109 374 180 599 220 133 24 408 26 543 4z
m-1030 -1578 c8 -5 11 -17 8 -30 -3 -12 -2 -35 2 -50 7 -27 9 -26 34 32 l25
59 57 1 c31 0 58 -4 61 -8 3 -5 -15 -50 -40 -101 l-47 -92 46 -121 c25 -67 46
-130 46 -140 0 -9 5 -14 10 -11 6 3 10 31 10 61 0 60 16 77 51 56 10 -7 30
-12 44 -12 47 0 40 27 -23 95 -65 69 -80 106 -68 170 4 20 20 50 35 67 24 27
36 32 89 36 34 2 73 1 87 -2 24 -6 26 -10 23 -59 l-3 -52 -52 -3 c-71 -4 -69
-20 9 -99 57 -58 62 -65 66 -116 3 -37 -1 -63 -12 -85 -17 -32 -61 -62 -92
-62 -12 0 -6 -12 23 -42 21 -24 45 -58 52 -75 l13 -33 439 0 439 0 20 39 c53
105 150 107 150 4 l0 -43 534 0 c434 0 536 -3 545 -13 18 -22 2 -27 -84 -27
l-82 0 -18 -47 c-59 -162 -148 -326 -250 -463 -70 -94 -236 -260 -332 -333
-228 -173 -492 -285 -785 -331 -124 -20 -381 -21 -508 -1 -123 19 -116 20
-129 -17 -26 -74 -83 -98 -134 -57 -24 18 -36 47 -52 122 -3 18 -15 32 -33 39
-281 117 -450 227 -639 419 -169 172 -300 383 -388 622 l-18 47 -82 0 c-86 0
-102 5 -84 27 9 10 106 13 516 13 l505 0 51 45 c29 25 60 45 70 45 11 0 32 14
47 30 l28 30 -53 0 -53 0 -29 83 -28 82 -5 -80 -5 -80 -58 0 -58 0 -2 227 c-2
126 0 231 5 236 10 10 89 9 106 -2z m734 -5 c16 -14 83 -435 73 -451 -3 -6
-30 -10 -60 -10 l-53 0 -7 40 c-6 37 -9 40 -40 40 -30 0 -34 -3 -42 -37 -9
-37 -10 -38 -61 -41 -37 -2 -54 1 -58 11 -2 7 11 110 31 228 26 157 40 217 52
226 17 13 150 8 165 -6z m320 7 c3 -7 2 -38 -1 -68 -6 -53 -7 -55 -38 -58 -46
-5 -63 -34 -63 -107 1 -70 15 -94 62 -104 33 -7 33 -8 36 -68 3 -70 -1 -74
-71 -63 -64 9 -96 35 -129 100 -23 44 -28 67 -28 127 0 133 34 204 115 239 39
17 111 18 117 2z m269 -10 c5 -8 17 -72 64 -358 7 -41 10 -81 7 -88 -3 -9 -22
-12 -61 -10 -56 3 -56 3 -61 38 -5 32 -8 35 -40 35 -32 0 -35 -3 -40 -35 -5
-35 -6 -35 -59 -38 -30 -2 -57 0 -61 5 -5 4 7 98 25 207 39 233 43 248 58 258
16 10 160 -3 168 -14z m313 16 c12 -5 16 -20 16 -60 l0 -53 -52 -3 c-31 -2
-53 -8 -56 -16 -2 -7 17 -33 43 -57 71 -65 85 -91 85 -158 0 -53 -3 -62 -33
-92 -26 -26 -44 -34 -88 -40 -33 -4 -72 -2 -97 4 l-42 12 0 55 c0 60 16 77 51
56 10 -7 32 -12 49 -12 45 0 39 31 -16 82 -60 56 -76 89 -75 154 0 65 12 89
54 114 32 20 125 28 161 14z"/>
<path d="M2305 4134 c-87 -13 -241 -49 -325 -76 -488 -159 -886 -562 -1043
-1053 -50 -158 -53 -175 -29 -175 15 0 21 12 32 58 32 144 127 368 217 509
213 338 552 585 929 678 279 69 637 57 917 -32 384 -121 724 -425 924 -828 52
-104 101 -228 128 -327 13 -46 21 -58 37 -58 24 0 22 16 -29 175 -154 484
-544 883 -1023 1047 -180 61 -297 81 -510 84 -107 1 -208 0 -225 -2z"/>
<path d="M2374 4027 c-48 -22 -160 -133 -183 -181 -31 -62 -28 -124 7 -172 30
-41 256 -289 286 -313 15 -12 53 -12 275 2 141 9 267 20 278 24 46 17 186 219
219 316 19 57 15 80 -28 131 -54 65 -268 149 -460 181 -139 23 -355 29 -394
12z"/>
<path d="M3343 3695 c-12 -8 -32 -32 -44 -52 -13 -21 -47 -69 -75 -108 -73
-97 -104 -163 -105 -222 -1 -43 33 -167 124 -450 l10 -33 373 0 372 0 -14 63
c-69 306 -318 683 -516 782 -79 39 -94 42 -125 20z"/>
<path d="M1970 3667 c-94 -34 -207 -98 -269 -153 -67 -59 -137 -165 -185 -279
-53 -127 -118 -339 -114 -372 l3 -28 445 -3 445 -2 64 191 c73 220 74 248 21
347 -29 54 -211 272 -249 299 -36 25 -93 25 -161 0z"/>
<path d="M1350 3523 c-126 -138 -257 -369 -319 -566 -17 -53 -31 -104 -31
-112 0 -13 25 -15 160 -15 l159 0 11 43 c28 114 117 364 166 462 29 61 54 120
54 132 0 61 -53 123 -106 123 -27 0 -42 -11 -94 -67z"/>
<path d="M1960 2128 c-1 -7 -24 -24 -53 -38 -29 -14 -52 -30 -52 -37 0 -6 -4
-15 -9 -20 -5 -4 -6 -3 -3 3 4 7 1 14 -7 17 -17 7 -78 -43 -107 -86 -16 -25
-12 -22 23 13 23 25 52 52 63 60 11 7 -7 -14 -39 -48 -33 -33 -63 -59 -66 -57
-14 9 -42 -34 -47 -73 -5 -39 9 -82 27 -82 6 0 10 15 10 34 0 25 12 50 45 95
45 58 104 116 111 108 2 -2 -1 -81 -8 -176 -12 -167 -13 -173 -36 -185 l-25
-13 26 -24 c19 -19 26 -37 30 -87 5 -64 18 -92 44 -92 11 0 12 11 7 52 -7 48
-6 51 12 43 88 -37 172 -47 192 -22 17 20 26 67 13 67 -6 0 -11 -7 -11 -15 0
-38 -126 -20 -186 28 -32 25 -30 39 7 61 106 63 211 181 228 258 17 75 -19
158 -88 205 -37 25 -101 31 -101 11z m53 -5 c-7 -2 -21 -2 -30 0 -10 3 -4 5
12 5 17 0 24 -2 18 -5z m52 -45 c14 -6 35 -27 46 -45 34 -55 13 -108 -80 -208
-41 -44 -56 -62 -33 -40 54 50 55 32 2 -20 -27 -26 -43 -36 -48 -28 -5 8 -14
6 -31 -8 -13 -10 -18 -19 -12 -19 7 0 9 -4 6 -10 -26 -42 -28 68 -4 271 9 83
14 98 32 107 30 14 91 14 122 0z m-188 -200 c-3 -7 -5 -2 -5 12 0 14 2 19 5
13 2 -7 2 -19 0 -25z m233 -17 c0 -15 -100 -120 -153 -163 -57 -45 -88 -51
-37 -8 19 17 26 27 16 23 -14 -4 -17 -3 -12 6 4 6 15 9 25 6 12 -4 37 16 87
69 77 82 74 79 74 67z m-243 -113 c-2 -13 -4 -5 -4 17 -1 22 1 32 4 23 2 -10
2 -28 0 -40z m192 -224 c10 -9 -55 -3 -69 6 -10 6 -2 7 25 3 22 -3 42 -7 44
-9z"/>
<path d="M1980 2051 c-14 -4 -26 -15 -28 -24 -3 -15 6 -17 62 -17 51 0 64 3
60 14 -5 13 -48 37 -62 35 -4 -1 -18 -4 -32 -8z"/>
<path d="M1947 1963 c-3 -5 -8 -48 -12 -98 l-6 -90 74 76 c40 41 76 85 79 97
6 21 3 22 -62 22 -38 0 -71 -3 -73 -7z"/>
<path d="M3138 2073 c-26 -29 -76 -141 -95 -214 -17 -67 -18 -68 -52 -71 -49
-4 -82 -61 -79 -133 3 -42 7 -52 30 -64 26 -15 29 -14 58 14 16 16 30 24 30
19 0 -20 41 -54 66 -54 19 0 29 10 46 45 l22 45 10 -32 c7 -19 22 -38 38 -46
38 -18 79 5 103 55 10 21 24 52 32 68 l14 30 -21 -25 c-11 -14 -37 -44 -56
-67 -20 -25 -44 -43 -56 -43 -18 0 -17 3 11 35 50 58 75 114 62 141 -8 17 -19
24 -40 24 -34 0 -39 -6 -84 -95 -20 -38 -47 -81 -62 -95 -26 -24 -27 -25 -41
-6 -14 19 -19 45 -14 75 1 8 18 49 37 90 42 90 83 197 83 214 0 11 -19 -30
-67 -148 -18 -43 -53 -105 -53 -93 0 24 34 145 59 210 44 113 63 139 75 101 3
-11 4 -7 3 7 -2 31 -36 39 -59 13z m-120 -358 c-4 -50 -37 -115 -59 -115 -15
0 -10 89 7 123 38 74 58 70 52 -8z m243 11 c-23 -47 -51 -78 -51 -57 0 28 57
117 68 107 2 -3 -5 -25 -17 -50z"/>
<path d="M3181 2014 c0 -11 3 -14 6 -6 3 7 2 16 -1 19 -3 4 -6 -2 -5 -13z"/>
<path d="M955 1943 c11 -48 85 -205 132 -282 175 -291 436 -523 742 -661 53
-24 90 -35 95 -30 13 13 15 11 -96 64 -346 165 -671 505 -818 859 -20 46 -39
77 -47 77 -11 0 -13 -7 -8 -27z"/>
<path d="M1060 1959 c0 -31 156 -329 173 -329 4 0 7 17 7 38 0 25 -20 79 -62
169 -58 123 -65 133 -90 133 -16 0 -28 -5 -28 -11z"/>
<path d="M1660 1959 c0 -5 5 -7 10 -4 6 3 10 8 10 11 0 2 -4 4 -10 4 -5 0 -10
-5 -10 -11z"/>
<path d="M2190 1938 c0 -74 -78 -183 -200 -280 l-45 -35 35 -22 c48 -29 88
-28 92 2 2 12 12 26 23 31 13 5 27 30 38 66 25 77 54 104 104 97 21 -3 46 -8
56 -12 13 -5 17 -2 17 12 0 44 72 71 100 38 9 -11 17 -12 30 -5 33 18 70 11
96 -17 19 -20 27 -24 36 -15 7 7 24 12 38 12 36 0 56 26 65 80 3 25 9 53 11
63 5 16 -11 17 -245 17 l-251 0 0 -32z"/>
<path d="M2732 1903 c-8 -47 -8 -72 0 -86 6 -11 8 -40 4 -67 -6 -47 -5 -49 31
-77 21 -16 54 -39 73 -50 l35 -21 1 56 c1 86 53 172 104 172 11 0 22 19 34 58
10 31 21 63 23 70 4 9 -29 12 -144 12 l-150 0 -11 -67z"/>
<path d="M3210 1957 c0 -18 -43 -124 -86 -213 -54 -114 -36 -125 21 -13 52
101 112 133 166 90 13 -10 27 -19 31 -20 4 -1 20 -15 36 -30 l28 -29 -38 -77
c-21 -43 -38 -79 -38 -80 0 -2 55 34 123 78 168 112 243 190 272 285 l6 22
-260 0 c-210 0 -261 -3 -261 -13z"/>
<path d="M4026 1939 c-7 -19 -28 -69 -46 -111 -84 -204 -269 -442 -465 -600
-138 -110 -403 -252 -514 -274 -17 -4 -31 -10 -31 -15 0 -13 9 -11 86 15 315
109 615 343 808 631 87 129 199 365 182 382 -3 3 -12 -9 -20 -28z"/>
<path d="M1772 1884 c-23 -31 -42 -63 -42 -71 0 -8 17 -31 37 -51 l38 -37 7
105 c4 57 6 106 4 107 -1 2 -21 -22 -44 -53z"/>
<path d="M3755 1810 c-22 -11 -119 -77 -215 -146 -96 -70 -219 -155 -272 -190
-100 -67 -195 -161 -224 -224 -9 -19 -32 -68 -51 -109 -28 -59 -32 -75 -22
-82 24 -15 50 -10 138 28 263 111 512 320 672 562 80 121 90 148 64 168 -25
18 -43 17 -90 -7z"/>
<path d="M1525 1804 c-11 -3 -66 -21 -122 -41 l-103 -35 0 -73 c0 -40 3 -87 7
-106 13 -68 247 -280 421 -382 69 -41 202 -101 208 -95 2 3 13 56 24 119 30
162 33 172 60 186 18 9 30 9 54 -1 37 -15 37 -22 6 -159 -12 -54 -20 -100 -17
-103 7 -7 80 31 96 50 8 9 22 16 32 16 13 0 19 7 19 23 0 49 -46 165 -91 228
-15 22 -28 27 -81 32 -35 3 -73 9 -85 13 -20 6 -23 3 -23 -24 0 -38 -27 -56
-62 -43 -36 14 -48 33 -60 102 -6 35 -20 76 -31 91 -15 20 -18 36 -14 62 5 31
2 38 -28 60 -18 14 -40 23 -48 20 -9 -3 -24 7 -39 26 -25 32 -74 45 -123 34z"/>
<path d="M2339 1773 c-13 -39 -15 -289 -3 -390 6 -49 5 -53 -20 -64 -25 -12
-34 -33 -18 -43 9 -5 54 10 122 42 24 11 46 19 48 17 2 -2 -1 -45 -7 -97 -5
-51 -10 -119 -10 -150 1 -64 -24 -108 -66 -120 -21 -5 -26 -1 -36 29 -10 32
-6 123 8 159 2 7 -5 17 -16 23 -19 11 -24 4 -70 -94 -27 -58 -57 -112 -65
-121 -15 -14 -16 -13 -16 13 0 16 8 58 19 95 15 57 16 68 4 73 -19 6 -33 -2
-33 -20 0 -7 -13 -16 -29 -20 -16 -3 -54 -21 -85 -40 -52 -31 -56 -32 -51 -12
2 12 9 56 15 97 6 41 18 99 26 129 16 55 9 79 -18 68 -14 -5 -48 -179 -64
-317 -3 -30 -13 -66 -21 -79 -14 -21 -14 -25 1 -33 10 -6 16 -22 16 -46 0 -57
19 -111 44 -127 48 -31 76 10 83 120 4 53 1 75 -11 90 -13 18 -14 16 -5 -25 6
-25 8 -60 5 -78 -6 -38 -45 -97 -57 -85 -13 13 -28 156 -17 176 5 9 18 17 28
17 11 0 20 5 20 10 0 6 -9 10 -20 10 -11 0 -20 4 -20 9 0 14 66 69 112 92 l41
21 -7 -24 c-3 -12 -9 -47 -12 -75 -8 -60 4 -83 42 -83 21 0 30 13 64 86 25 55
43 83 51 79 6 -5 9 -20 5 -37 -8 -43 17 -96 50 -104 23 -6 32 -1 60 32 l33 39
1 -52 c0 -28 3 -60 6 -70 5 -15 4 -15 -5 -3 -9 13 -11 13 -11 0 0 -22 16 -43
29 -39 7 3 13 66 16 184 3 99 11 211 18 250 12 65 14 70 42 76 l30 7 -29 1
c-19 1 -27 5 -23 15 3 7 9 34 12 60 6 37 4 47 -9 52 -23 9 -26 5 -43 -70 -12
-56 -19 -69 -43 -81 -37 -19 -56 -19 -64 1 -8 20 -8 105 0 172 6 47 9 52 31
52 37 0 79 49 99 115 22 79 12 110 -36 110 -38 0 -59 -27 -92 -119 l-18 -51 6
65 c3 36 8 77 11 93 5 22 2 27 -15 27 -15 0 -24 -10 -33 -37z m151 -18 c0 -37
-29 -106 -58 -137 -14 -15 -28 -26 -30 -23 -7 7 36 138 53 163 21 29 35 28 35
-3z m-143 -177 c-2 -18 -4 -4 -4 32 0 36 2 50 4 33 2 -18 2 -48 0 -65z"/>
<path d="M2663 1782 c-8 -14 -20 -17 -47 -14 -34 4 -37 2 -51 -32 -30 -70 -21
-145 16 -146 4 0 25 37 47 82 l41 83 -6 -60 c-5 -63 8 -115 29 -115 10 0 12
26 10 110 -3 111 -13 133 -39 92z m-33 -62 c0 -10 -7 -25 -15 -33 -8 -8 -12
-17 -9 -20 3 -2 -2 -7 -10 -10 -13 -5 -13 0 0 41 7 26 14 48 14 50 0 2 5 0 10
-3 6 -3 10 -15 10 -25z"/>
<path d="M2185 1734 c-27 -41 -31 -100 -10 -124 18 -20 51 -26 71 -12 21 13
54 77 54 103 0 58 -83 82 -115 33z m83 4 c14 -14 16 -62 2 -53 -5 3 -10 -1
-10 -10 0 -18 -43 -65 -61 -65 -17 0 -4 64 21 105 24 38 30 41 48 23z"/>
<path d="M2150 1550 c0 -30 1 -30 54 -30 70 0 86 7 86 37 0 14 -3 23 -7 21 -5
-2 -20 -10 -36 -18 -24 -12 -32 -11 -62 3 l-35 17 0 -30z"/>
<path d="M3001 1556 c-10 -12 -2 -18 42 -34 92 -35 119 -36 173 -11 l49 22
-38 7 c-21 4 -43 12 -49 18 -8 8 -18 6 -36 -8 -32 -25 -66 -25 -102 0 -23 17
-30 18 -39 6z"/>
<path d="M2648 1420 c-25 -27 -41 -50 -36 -50 5 0 5 -7 -1 -18 -15 -28 -41
-136 -50 -210 -9 -71 2 -176 21 -199 14 -18 28 -16 28 3 0 9 23 41 51 71 38
42 49 62 47 82 -5 41 -46 41 -80 0 -16 -18 -28 -31 -28 -28 0 3 24 48 53 100
30 52 65 120 78 152 13 32 25 54 27 48 2 -6 10 -11 18 -11 19 0 18 39 -1 46
-8 4 -15 14 -15 23 0 9 -5 22 -12 29 -24 24 -54 12 -100 -38z m82 0 c0 -27 -3
-30 -30 -30 -36 0 -37 6 -8 37 29 31 38 29 38 -7z m3 -46 c-7 -3 -9 -12 -6
-21 5 -12 3 -14 -7 -8 -10 6 -12 4 -7 -8 3 -10 2 -17 -4 -17 -6 0 -7 -4 -4
-10 3 -5 2 -10 -4 -10 -6 0 -8 -7 -5 -15 4 -8 -1 -17 -10 -21 -9 -3 -13 -10
-10 -15 3 -5 1 -9 -4 -9 -6 0 -23 -21 -38 -47 -36 -62 -42 -39 -15 59 35 128
35 128 83 127 24 0 38 -3 31 -5z m-70 -305 c-10 -17 -26 -38 -37 -47 -18 -17
-18 -16 -3 15 16 30 43 63 53 63 3 0 -3 -14 -13 -31z"/>
<path d="M2960 1418 c-39 -65 -65 -202 -65 -353 0 -141 9 -185 39 -185 10 0
11 10 5 43 -17 87 -11 171 16 219 31 56 73 166 86 230 12 56 2 78 -37 78 -17
0 -31 -10 -44 -32z m55 -35 c-4 -27 -8 -58 -9 -70 0 -11 -5 -19 -10 -16 -4 3
-5 -5 -1 -17 5 -17 4 -21 -6 -15 -9 6 -11 3 -6 -9 4 -9 3 -15 -2 -12 -11 7
-23 -22 -14 -36 4 -7 1 -8 -7 -3 -9 6 -12 4 -8 -7 4 -9 0 -15 -8 -15 -8 0 -14
1 -14 3 0 22 37 169 51 201 25 59 44 57 34 -4z"/>
<path d="M2756 1101 c-26 -29 -38 -82 -25 -114 13 -30 53 -46 78 -30 20 12 47
59 56 95 14 54 -70 92 -109 49z m88 -14 c8 -13 7 -20 -4 -27 -8 -5 -11 -12 -7
-16 4 -4 -10 -23 -31 -43 -36 -35 -37 -36 -40 -12 -5 33 4 64 29 95 23 29 36
30 53 3z"/>
<path d="M2380 1030 c0 -5 4 -10 9 -10 6 0 13 5 16 10 3 6 -1 10 -9 10 -9 0
-16 -4 -16 -10z"/>
<path d="M2675 980 c-3 -5 -1 -10 4 -10 6 0 11 5 11 10 0 6 -2 10 -4 10 -3 0
-8 -4 -11 -10z"/>
<path d="M2848 915 c-8 -8 -215 -35 -270 -35 -30 0 -48 -4 -48 -12 0 -26 329
13 338 40 4 12 -10 17 -20 7z"/>
<path d="M2231 890 c-19 -11 6 -18 103 -26 63 -5 86 -4 86 5 0 6 -6 13 -12 15
-28 9 -166 14 -177 6z"/>
<path d="M2362 2445 c-17 -81 -16 -87 11 -83 20 3 22 8 18 52 -6 86 -16 97
-29 31z"/>
<path d="M2946 2453 c-11 -71 -8 -93 14 -93 15 0 20 7 20 28 0 42 -12 102 -20
102 -4 0 -10 -17 -14 -37z"/>
</g>
</svg>
